<?xml version="1.0" encoding="UTF-8"?>
<!DOCTYPE svg PUBLIC "-//W3C//DTD SVG 1.1//EN" "http://www.w3.org/Graphics/SVG/1.1/DTD/svg11.dtd">
<svg xmlns="http://www.w3.org/2000/svg" xmlns:xlink="http://www.w3.org/1999/xlink" version="1.1" width="315px" height="447px" viewBox="-0.5 -0.5 315 447"><defs><linearGradient x1="0%" y1="0%" x2="0%" y2="100%" id="mx-gradient-f5f5f5-1-cccccc-1-s-0"><stop offset="0%" style="stop-color: rgb(245, 245, 245); stop-opacity: 1;"/><stop offset="100%" style="stop-color: rgb(204, 204, 204); stop-opacity: 1;"/></linearGradient><linearGradient x1="0%" y1="0%" x2="0%" y2="100%" id="mx-gradient-ffffff-0.9-ffffff-0.1-s-0"><stop offset="0%" style="stop-color: rgb(255, 255, 255); stop-opacity: 0.9;"/><stop offset="100%" style="stop-color: rgb(255, 255, 255); stop-opacity: 0.1;"/></linearGradient></defs><g><g style="filter: drop-shadow(rgba(0, 0, 0, 0.25) 2px 3px 2px);"><rect x="57" y="57" width="240" height="330" fill="url(#mx-gradient-f5f5f5-1-cccccc-1-s-0)" stroke="#666666" stroke-width="2" pointer-events="all"/><path d="M 56 56 L 56 189 Q 177 288 298 189 L 298 56 Z" fill="url(#mx-gradient-ffffff-0.9-ffffff-0.1-s-0)" stroke="none" pointer-events="all"/></g><g><rect x="77" y="157" width="120" height="10" fill="#ffbb00" stroke="#c73500" pointer-events="all"/></g><g><rect x="77" y="197" width="200" height="10" fill="#ffbb00" stroke="#c73500" pointer-events="all"/></g><g><rect x="77" y="237" width="200" height="10" fill="#ffbb00" stroke="#c73500" pointer-events="all"/></g><g><rect x="207" y="77" width="70" height="90" fill="#66ffff" stroke="#006eaf" pointer-events="all"/></g><g><rect x="77" y="77" width="120" height="10" fill="#ffbb00" stroke="#c73500" pointer-events="all"/></g><g><rect x="77" y="117" width="120" height="10" fill="#ffbb00" stroke="#c73500" pointer-events="all"/></g><g><rect x="77" y="277" width="200" height="10" fill="#ffbb00" stroke="#c73500" pointer-events="all"/></g><g><rect x="77" y="317" width="200" height="10" fill="#ffbb00" stroke="#c73500" pointer-events="all"/></g><g><rect x="77" y="357" width="200" height="10" fill="#ffbb00" stroke="#c73500" pointer-events="all"/></g><g style="filter: drop-shadow(rgba(0, 0, 0, 0.25) 2px 3px 2px);"><path d="M -122.45 292.54 L -75.74 151.45 L 245.84 151.45 L 292.55 292.54 Z" fill="#6600cc" stroke="#9673a6" stroke-width="2" stroke-miterlimit="10" transform="rotate(-90,85.05,222)" pointer-events="all"/></g></g></svg>